<svg xmlns="http://www.w3.org/2000/svg" xmlns:xlink="http://www.w3.org/1999/xlink" width="47" height="28" viewBox="0 0 47 28"><defs><path id="4m5ga" d="M1109.84 5484l.72-.02.72-.05.7-.1.7-.12.67-.15.67-.2.65-.21.64-.25.63-.29.6-.3.6-.34.56-.37.55-.39.53-.41.51-.44.5-.47.46-.49.44-.5.42-.53.4-.55.36-.57.34-.59.3-.6.29-.63.25-.63.22-.66.2-.66.15-.68.12-.69.09-.7.05-.71.02-.72-.02-.72-.05-.7-.09-.7-.12-.7-.16-.67-.19-.66-.22-.65-.25-.63-.29-.62-.3-.6-.34-.58-.37-.58-.4-.54-.4-.53-.45-.5-.47-.5-.49-.46-.5-.43-.54-.42-.55-.4-.57-.36-.59-.33-.6-.3-.63-.29-.64-.25-.65-.22-.67-.2-.67-.15-.7-.12-.7-.09-.72-.05-.72-.02-.72.02-.71.05-.7.09-.7.12-.67.16-.67.19-.65.22-.64.25-.62.28-.6.31-.59.33-.57.37-.55.39-.53.42-.5.43-.49.47-.46.48-.44.51-.42.53-.39.54-.36.58-.34.58-.31.6-.28.62-.25.63-.22.65-.19.66-.16.68-.12.68-.09.7-.05.71-.02.72.02.72.05.71.1.7.11.7.16.67.19.66.22.66.25.63.28.63.31.6.34.59.36.57.39.55.42.52.44.51.46.49.49.47.5.44.53.41.55.4.57.36.59.34.6.3.62.29.64.25.65.22.67.19.67.15.7.13.7.09.71.05.72.02z"/><path id="4m5gb" d="M1091.06 5484l.72-.02.72-.05.7-.1.69-.12.68-.15.66-.2.65-.21.64-.25.62-.29.6-.3.59-.34.57-.37.55-.39.53-.41.5-.44.5-.47.46-.49.44-.5.41-.53.4-.55.36-.57.33-.59.31-.6.28-.63.25-.63.22-.66.2-.66.15-.68.12-.69.1-.7.04-.71.02-.72-.02-.72-.05-.7-.09-.7-.12-.7-.16-.67-.19-.66-.22-.65-.25-.63-.28-.62-.3-.6-.34-.58-.37-.58-.39-.54-.41-.53-.44-.5-.47-.5-.49-.46-.5-.43-.53-.42-.55-.4-.57-.36-.59-.33-.6-.3-.62-.29-.64-.25-.65-.22-.66-.2-.68-.15-.7-.12-.7-.09-.7-.05-.73-.02-.72.02-.72.05-.7.09-.7.12-.67.16-.67.19-.65.22-.64.25-.63.28-.6.31-.59.33-.57.37-.55.39-.53.42-.51.43-.5.47-.46.48-.44.51-.42.53-.39.54-.36.58-.34.58-.31.6-.29.62-.25.63-.22.65-.19.66-.16.68-.12.68-.09.7-.05.71-.02.72.02.72.05.71.1.7.11.7.16.67.19.66.22.66.25.63.29.63.3.6.35.59.36.57.4.55.41.52.44.51.47.49.49.47.5.44.54.41.55.4.57.36.59.34.6.3.63.29.64.25.65.22.67.19.68.15.7.13.7.09.7.05.73.02z"/><path id="4m5gc" d="M1098.81 5461.38h7.46v-.76h-6.82l-.64.76z"/><path id="4m5gd" d="M1097.69 5463.07h8.57v-.76h-8.12l-.45.76z"/><path id="4m5ge" d="M1096.86 5464.75h9.4v-.76h-9.07l-.33.76z"/><path id="4m5gf" d="M1096.28 5466.44h9.98v-.76h-9.74l-.24.76z"/><path id="4m5gg" d="M1096.62 5474.61h9.67v-.76h-9.91l.24.76z"/><path id="4m5gh" d="M1097.34 5476.3h8.95v-.76h-9.31l.36.76z"/><path id="4m5gi" d="M1098.34 5477.98h7.95v-.76h-8.43l.48.76z"/><path id="4m5gj" d="M1099.72 5479.67h6.57v-.76h-7.24l.67.76z"/><path id="4m5gk" d="M1095.95 5468.13h10.32v-.76h-10.17l-.15.76z"/><path id="4m5gl" d="M1102.24 5472.92h3.93v-.76h-3.79l-.14.76z"/><path id="4m5gm" d="M1102.55 5471.23h3.62v-.76h-3.48l-.14.76z"/><path id="4m5gn" d="M1095.69 5470.47h1.02v.76h-.97l-.05-.76z"/><path id="4m5go" d="M1093.78 5469.55h-.07l-.07-.01-.06-.01-.06-.01-.06-.01-.06-.01-.06-.01-.06-.01-.07-.01h-.08l-.08-.01H1092.63l-.14.02-.1.01-.09.02-.08.03-.07.02-.06.04-.06.03-.05.05-.04.04-.03.06-.03.05V5470l.03.06.04.07.04.06.1.09.11.07.13.06.15.05.15.05.15.05.16.06.15.06.14.08.14.1.11.12.1.14.08.18.05.21.02.26-.02.3-.04.22-.05.2-.08.17-.1.16-.1.13-.13.12-.13.1-.15.1-.15.07-.15.06-.16.04-.17.04-.16.03-.16.01-.15.01H1090.82l-.12-.02h-.12l-.1-.02h-.1l-.1-.03-.09-.01-.08-.03-.08-.01-.07-.03-.08-.03-.08-.03.21-1.04h.05l.05.02.06.02.08.02.09.02.1.02.1.02.11.02.12.02.12.02.13.01.13.02h.55l.14-.03.11-.04.08-.05.07-.06.05-.07.04-.08.02-.07.02-.07v-.14l-.03-.12-.08-.1-.12-.07-.14-.07-.17-.07-.19-.07-.18-.07-.19-.09-.18-.1-.17-.12-.15-.15-.12-.18-.08-.2-.04-.26v-.3l.03-.2.03-.17.05-.16.05-.15.08-.14.08-.12.1-.12.12-.1.14-.1.15-.07.17-.07.19-.05.21-.04.24-.04.25-.02h.62l.14.01h.14l.11.01.11.01.1.01.08.01.08.01.07.02h.06l.06.01.05.01h.04l.04.02h.04l-.24 1.07z"/><path id="4m5gp" d="M1093.78 5469.55h-.07l-.07-.01-.06-.01-.06-.01-.06-.01-.06-.01-.06-.01-.06-.01-.07-.01h-.08l-.08-.01H1092.63l-.14.02-.1.01-.09.02-.08.03-.07.02-.06.04-.06.03-.05.05-.04.04-.03.06-.03.05V5470l.03.06.04.07.04.06.1.09.11.07.13.06.15.05.15.05.15.05.16.06.15.06.14.08.14.1.11.12.1.14.08.18.05.21.02.26-.02.3-.04.22-.05.2-.08.17-.1.16-.1.13-.13.12-.13.1-.15.1-.15.07-.15.06-.16.04-.17.04-.16.03-.16.01-.15.01H1090.82l-.12-.02h-.12l-.1-.02h-.1l-.1-.03-.09-.01-.08-.03-.08-.01-.07-.03-.08-.03-.08-.03.21-1.04h.05l.05.02.06.02.08.02.09.02.1.02.1.02.11.02.12.02.12.02.13.01.13.02h.55l.14-.03.11-.04.08-.05.07-.06.05-.07.04-.08.02-.07.02-.07v-.14l-.03-.12-.08-.1-.12-.07-.14-.07-.17-.07-.19-.07-.18-.07-.19-.09-.18-.1-.17-.12-.15-.15-.12-.18-.08-.2-.04-.26v-.3l.03-.2.03-.17.05-.16.05-.15.08-.14.08-.12.1-.12.12-.1.14-.1.15-.07.17-.07.19-.05.21-.04.24-.04.25-.02h.62l.14.01h.14l.11.01.11.01.1.01.08.01.08.01.07.02h.06l.06.01.05.01h.04l.04.02h.04l-.24 1.07"/><path id="4m5gq" d="M1094.9 5467.32h1.31l-.19 1.14h.8l-.18 1.07-.83-.02-.46 2.63v.1l.02.07.05.07.06.05.09.03.1.03.1.02H1096.07l.08-.02.08-.02.06-.02.04-.01.03-.01h.01l-.17.87-.03.02-.03.02-.04.02-.03.02-.03.01-.04.02-.04.01-.04.02-.05.01-.05.01-.06.01-.05.01h-.06l-.08.02h-.07l-.08.02h-.36l-.2-.02-.16-.02-.15-.02-.13-.04-.1-.04-.1-.05-.08-.05-.06-.06-.04-.07-.04-.08-.02-.08-.02-.1v-.19l.01-.11.02-.12.9-5.15z"/><path id="4m5gr" d="M1094.9 5467.32h1.31l-.19 1.14h.8l-.18 1.07-.83-.02-.46 2.63v.1l.02.07.05.07.06.05.09.03.1.03.1.02H1096.07l.08-.02.08-.02.06-.02.04-.01.03-.01h.01l-.17.87-.03.02-.03.02-.04.02-.03.02-.03.01-.04.02-.04.01-.04.02-.05.01-.05.01-.06.01-.05.01h-.06l-.08.02h-.07l-.08.02h-.36l-.2-.02-.16-.02-.15-.02-.13-.04-.1-.04-.1-.05-.08-.05-.06-.06-.04-.07-.04-.08-.02-.08-.02-.1v-.19l.01-.11.02-.12.9-5.15"/><path id="4m5gs" d="M1097.85 5471.3l-.01.09V5471.56l.02.09.04.09.03.08.05.1.06.07.07.08.07.08.07.07.09.05.09.06.09.04.1.03.09.02.12.02.12.01.12.02h.13l.12.01h.25l.13-.01.13-.02.12-.03.14-.02.13-.05.13-.05.13-.06.14-.07.13-.08-.18 1.16-.08.04-.08.04-.07.02-.07.03-.07.03-.08.02-.08.02-.08.01-.08.02h-.1l-.1.02h-.1l-.13.01h-.66l-.24-.02-.23-.04-.24-.05-.23-.07-.22-.1-.22-.11-.2-.14-.18-.16-.16-.2-.14-.21-.11-.25-.08-.28-.06-.31-.01-.35.02-.4.02-.14.03-.18.04-.18.05-.2.07-.2.09-.2.1-.21.14-.2.15-.19.18-.18.21-.16.24-.14.27-.12.31-.08.34-.06.39-.02h.18l.2.02.19.04.2.04.18.07.19.09.17.11.15.14.15.16.11.18.1.22.07.25.03.28v.33l-.02.35-.08.4-.02.29h-3.45l.22-.93h2.07l.01-.12v-.11l-.01-.1-.02-.1-.04-.09-.03-.08-.05-.07-.04-.07-.06-.05-.06-.05-.07-.04-.07-.04-.08-.03-.08-.02-.08-.01-.08-.01h-.1l-.08.02-.08.02-.08.02-.08.04-.07.04-.07.06-.06.05-.06.07-.06.07-.05.08-.04.08-.05.08-.03.1-.03.09-.02.1-.19.98z"/><path id="4m5gt" d="M1097.85 5471.3l-.01.09V5471.56l.02.09.04.09.03.08.05.1.06.07.07.08.07.08.07.07.09.05.09.06.09.04.1.03.09.02.12.02.12.01.12.02h.13l.12.01h.25l.13-.01.13-.02.12-.03.14-.02.13-.05.13-.05.13-.06.14-.07.13-.08-.18 1.16-.08.04-.08.04-.07.02-.07.03-.07.03-.08.02-.08.02-.08.01-.08.02h-.1l-.1.02h-.1l-.13.01h-.66l-.24-.02-.23-.04-.24-.05-.23-.07-.22-.1-.22-.11-.2-.14-.18-.16-.16-.2-.14-.21-.11-.25-.08-.28-.06-.31-.01-.35.02-.4.02-.14.03-.18.04-.18.05-.2.07-.2.09-.2.1-.21.14-.2.15-.19.18-.18.21-.16.24-.14.27-.12.31-.08.34-.06.39-.02h.18l.2.02.19.04.2.04.18.07.19.09.17.11.15.14.15.16.11.18.1.22.07.25.03.28v.33l-.02.35-.08.4-.02.29h-3.45l.22-.93h2.07l.01-.12v-.11l-.01-.1-.02-.1-.04-.09-.03-.08-.05-.07-.04-.07-.06-.05-.06-.05-.07-.04-.07-.04-.08-.03-.08-.02-.08-.01-.08-.01h-.1l-.08.02-.08.02-.08.02-.08.04-.07.04-.07.06-.06.05-.06.07-.06.07-.05.08-.04.08-.05.08-.03.1-.03.09-.02.1-.19.98"/><path id="4m5gu" d="M1109.15 5468.75l-.06-.04-.06-.02-.07-.04-.07-.03-.07-.03-.08-.03-.08-.02-.09-.03-.09-.03-.09-.02-.1-.01-.1-.02h-.1l-.12-.02h-.35l-.12.01-.13.02-.13.02-.13.04-.13.05-.14.07-.13.08-.13.1-.12.13-.12.15-.11.17-.1.21-.1.24-.1.26-.07.3-.03.17-.02.17v.32l.01.16.03.16.05.14.05.14.07.13.08.12.1.1.12.1.13.1.14.06.16.06.18.05.07.01.07.01.08.01.1.01.1.01h.35l.12-.02.12-.02.12-.04.12-.04.12-.05.1-.06.1-.07.1-.09-.21 1.26-.03.02-.03.03-.04.04-.04.02-.05.04-.07.04-.07.03-.09.03-.1.03-.13.02-.14.02-.17.02-.18.01H1106.79l-.26-.01-.22-.03-.22-.04-.22-.07-.21-.1-.21-.11-.2-.14-.2-.17-.17-.19-.15-.21-.14-.24-.1-.26-.1-.29-.05-.32-.02-.33v-.37l.06-.39.04-.2.04-.18.05-.19.05-.17.05-.17.06-.16.06-.16.07-.14.07-.15.07-.14.08-.13.09-.12.08-.12.1-.11.09-.1.1-.1.1-.1.12-.1.11-.07.12-.08.13-.07.13-.06.13-.06.14-.05.14-.04.15-.04.15-.03.16-.03.16-.03.17-.02h.17l.18-.01h.15l.15.01.14.02.15.02.13.02.13.02.12.03.11.03.11.02.1.03.09.03.07.03.07.02.06.02.04.02.03.01-.24 1.3z"/><path id="4m5gv" d="M1109.15 5468.75l-.06-.04-.06-.02-.07-.04-.07-.03-.07-.03-.08-.03-.08-.02-.09-.03-.09-.03-.09-.02-.1-.01-.1-.02h-.1l-.12-.02h-.35l-.12.01-.13.02-.13.02-.13.04-.13.05-.14.07-.13.08-.13.1-.12.13-.12.15-.11.17-.1.21-.1.24-.1.26-.07.3-.03.17-.02.17v.32l.01.16.03.16.05.14.05.14.07.13.08.12.1.1.12.1.13.1.14.06.16.06.18.05.07.01.07.01.08.01.1.01.1.01h.35l.12-.02.12-.02.12-.04.12-.04.12-.05.1-.06.1-.07.1-.09-.21 1.26-.03.02-.03.03-.04.04-.04.02-.05.04-.07.04-.07.03-.09.03-.1.03-.13.02-.14.02-.17.02-.18.01H1106.79l-.26-.01-.22-.03-.22-.04-.22-.07-.21-.1-.21-.11-.2-.14-.2-.17-.17-.19-.15-.21-.14-.24-.1-.26-.1-.29-.05-.32-.02-.33v-.37l.06-.39.04-.2.04-.18.05-.19.05-.17.05-.17.06-.16.06-.16.07-.14.07-.15.07-.14.08-.13.09-.12.08-.12.1-.11.09-.1.1-.1.1-.1.12-.1.11-.07.12-.08.13-.07.13-.06.13-.06.14-.05.14-.04.15-.04.15-.03.16-.03.16-.03.17-.02h.17l.18-.01h.15l.15.01.14.02.15.02.13.02.13.02.12.03.11.03.11.02.1.03.09.03.07.03.07.02.06.02.04.02.03.01-.24 1.3"/><path id="4m5gw" d="M1120.8 5473.51h-1.3l.09-.52v-.05l-.08.1-.08.08-.08.08-.08.06-.09.07-.08.05-.09.04-.09.04-.09.04-.09.02-.09.02-.1.02-.09.01-.09.01h-.19l-.24-.01-.23-.06-.2-.08-.2-.1-.17-.14-.15-.16-.13-.18-.12-.2-.09-.2-.08-.23-.05-.23-.04-.24-.01-.24v-.25l.03-.24.04-.24.07-.28.09-.26.1-.24.12-.23.12-.21.14-.19.15-.17.15-.16.17-.13.17-.12.18-.1.18-.08.2-.07.18-.04.2-.03.19-.01h.13l.14.02.12.02.11.03.11.04.1.04.1.06.08.05.07.05.07.07.06.06.06.06.05.06.04.06.04.06.03.06.33-1.86h1.29l-1.07 6.17z"/><path id="4m5gx" d="M1120.8 5473.51h-1.3l.09-.52v-.05l-.08.1-.08.08-.08.08-.08.06-.09.07-.08.05-.09.04-.09.04-.09.04-.09.02-.09.02-.1.02-.09.01-.09.01h-.19l-.24-.01-.23-.06-.2-.08-.2-.1-.17-.14-.15-.16-.13-.18-.12-.2-.09-.2-.08-.23-.05-.23-.04-.24-.01-.24v-.25l.03-.24.04-.24.07-.28.09-.26.1-.24.12-.23.12-.21.14-.19.15-.17.15-.16.17-.13.17-.12.18-.1.18-.08.2-.07.18-.04.2-.03.19-.01h.13l.14.02.12.02.11.03.11.04.1.04.1.06.08.05.07.05.07.07.06.06.06.06.05.06.04.06.04.06.03.06.33-1.86h1.29l-1.07 6.17"/><path id="4m5gy" d="M1118.66 5472.38l.13-.01.12-.03.12-.04.1-.05.1-.05.1-.07.09-.08.08-.09.07-.1.07-.1.06-.1.05-.12.05-.12.04-.12.03-.13.02-.13.03-.13.01-.13v-.26l-.02-.13-.02-.12-.03-.1-.04-.12-.05-.1-.05-.08-.06-.08-.07-.06-.09-.06-.08-.04-.09-.02-.1-.01-.13.01-.12.02-.1.04-.11.04-.1.06-.1.08-.07.08-.08.09-.08.1-.06.11-.06.12-.06.12-.04.13-.04.12-.04.14-.03.14-.02.2v.23l.04.23.06.22.1.2.12.15.16.1.19.05z"/><path id="4m5gz" d="M1089.58 5472.47l-.19 1.05h-1.19l.03-.2.03-.17.02-.13.02-.07-.07.07-.08.08-.09.07-.1.06-.11.07-.12.06-.12.05-.13.05-.14.04-.13.04-.14.02-.14.02-.14.01h-.27l-.13-.03-.16-.04-.16-.05-.13-.06-.12-.07-.1-.07-.1-.09-.07-.09-.07-.1-.05-.1-.05-.1-.04-.1-.03-.1-.02-.11-.01-.11-.01-.1v-.1l.01-.2.03-.17.05-.16.06-.16.08-.15.08-.14.1-.13.12-.12.11-.1.14-.1.13-.1.15-.07.15-.07.15-.05.16-.04.17-.03h.03l.04-.01h.05l.06-.02h.06l.07-.01h.08l.08-.02h.08l.09-.01.08-.01h.07l.07-.01h.64l.06.01H1088.58l.01-.03.03-.08.03-.1v-.09l-.01-.1-.05-.1-.05-.08-.08-.07-.09-.07-.1-.04-.11-.03h-.13l-.13-.01H1087.31l-.16.02-.15.02-.14.02-.15.02-.13.02-.13.02-.11.03-.1.02-.09.03-.07.04-.05.02.34-1.13.1-.05.1-.03.12-.04.11-.02.12-.02.12-.02.12-.02.13-.01.13-.01h.14l.14-.01h.62l.17.01h.13l.14.03.15.04.15.04.15.05.14.07.14.08.14.1.11.1.1.1.1.14.07.14.05.15.03.16v.18l-.03.19-.48 2.49z"/><path id="4m5gA" d="M1089.58 5472.47l-.19 1.05h-1.19l.03-.2.03-.17.02-.13.02-.07-.07.07-.08.08-.09.07-.1.06-.11.07-.12.06-.12.05-.13.05-.14.04-.13.04-.14.02-.14.02-.14.01h-.27l-.13-.03-.16-.04-.16-.05-.13-.06-.12-.07-.1-.07-.1-.09-.07-.09-.07-.1-.05-.1-.05-.1-.04-.1-.03-.1-.02-.11-.01-.11-.01-.1v-.1l.01-.2.03-.17.05-.16.06-.16.08-.15.08-.14.1-.13.12-.12.11-.1.14-.1.13-.1.15-.07.15-.07.15-.05.16-.04.17-.03h.03l.04-.01h.05l.06-.02h.06l.07-.01h.08l.08-.02h.08l.09-.01.08-.01h.07l.07-.01h.64l.06.01H1088.58l.01-.03.03-.08.03-.1v-.09l-.01-.1-.05-.1-.05-.08-.08-.07-.09-.07-.1-.04-.11-.03h-.13l-.13-.01H1087.31l-.16.02-.15.02-.14.02-.15.02-.13.02-.13.02-.11.03-.1.02-.09.03-.07.04-.05.02.34-1.13.1-.05.1-.03.12-.04.11-.02.12-.02.12-.02.12-.02.13-.01.13-.01h.14l.14-.01h.62l.17.01h.13l.14.03.15.04.15.04.15.05.14.07.14.08.14.1.11.1.1.1.1.14.07.14.05.15.03.16v.18l-.03.19-.48 2.49"/><path id="4m5gB" d="M1088.44 5471.24v-.03l-.02-.02-.03-.02h-.05l-.05-.02h-.28l-.08.01-.08.01-.07.01-.07.01-.07.02-.06.01-.05.02h-.03l-.04.02-.05.02-.05.02-.07.03-.06.03-.06.04-.07.03-.06.05-.06.05-.06.05-.05.06-.05.06-.03.07-.03.07-.02.08v.16l.02.13.05.1.06.06.07.05.08.03.08.01H1087.32l.13-.01.12-.02.1-.03.1-.03.1-.04.07-.05.07-.05.07-.05.05-.05.05-.05.04-.06.03-.06.03-.05.02-.06.02-.05.03-.14.04-.15.03-.15.02-.12z"/><path id="4m5gC" d="M1079.63 5473.52h-1.29l1.07-6.2h2.24l.22 3.68 1.55-3.68h2.33l-1.1 6.2h-1.28l.81-4.63h-.05l-1.93 4.63h-1.45l-.01-.2-.03-.51-.05-.73-.04-.84-.05-.85-.04-.74-.04-.54v-.22h-.08l-.78 4.63z"/><path id="4m5gD" d="M1079.63 5473.52h-1.29l1.07-6.2h2.24l.22 3.68 1.55-3.68h2.33l-1.1 6.2h-1.28l.81-4.63h-.05l-1.93 4.63h-1.45l-.01-.2-.03-.51-.05-.73-.04-.84-.05-.85-.04-.74-.04-.54v-.22h-.08l-.78 4.63"/><path id="4m5gE" d="M1113.08 5472.47l-.2 1.05h-1.18v-.2l.01-.17v-.12l.01-.06-.06.07-.07.07-.09.07-.1.06-.1.06-.1.06-.12.06-.12.04-.13.04-.13.04-.13.02-.14.02-.13.01h-.26l-.13-.03-.17-.04-.15-.05-.14-.06-.12-.07-.1-.07-.1-.09-.07-.09-.07-.1-.05-.1-.05-.1-.03-.1-.03-.1-.02-.11-.01-.11-.01-.1v-.1l.01-.2.03-.17.04-.16.06-.16.07-.15.1-.14.1-.13.1-.12.12-.1.13-.1.14-.1.15-.07.14-.07.16-.05.16-.04.16-.03h.03l.03-.01h.05l.06-.02h.07l.07-.01h.07l.09-.02h.08l.08-.01.08-.01h.08l.06-.01H1111.97l.07.01h.06v-.03l.02-.08.02-.1v-.09l-.01-.1-.04-.1-.06-.08-.07-.07-.09-.07-.1-.04-.1-.03h-.11l-.14-.01H1110.83l-.16.02-.15.02-.14.02-.15.02-.13.02-.13.02-.11.03-.1.02-.09.03-.07.04-.05.02.33-1.13.1-.05.12-.03.1-.04.12-.02.12-.02.12-.02.12-.02.13-.01.13-.01h.14l.13-.01h.61l.16.01h.13l.15.03.14.04.15.04.15.05.15.07.14.08.13.1.12.1.1.1.1.14.08.14.05.15.03.16v.18l-.02.19-.5 2.49z"/><path id="4m5gF" d="M1112.89 5473.56l.03-.03.2-1.05-.07-.01-.19 1.05.03-.03v.07h.02v-.03l-.02.03z"/><path id="4m5gG" d="M1111.67 5473.55l.03.05h1.2v-.11h-1.2l.03.06h-.06v.05h.03l-.03-.05z"/><path id="4m5gH" d="M1111.8 5472.99l-.07-.04-.04.08V5473.32l-.02.2h.1l.01-.2.02-.17-.01-.12v-.04l-.07-.04.08.04z"/><path id="4m5gI" d="M1109.91 5473.6l.13.01.13.01h.27l.14-.03.13-.02.13-.04.14-.04.11-.04.13-.06.11-.06.1-.06.1-.07.08-.07.08-.07.06-.07-.05-.04-.06.07-.06.07-.09.06-.09.07-.1.06-.11.05-.12.06-.11.05-.13.03-.13.04-.13.03-.13.01-.14.01h-.26l-.12-.02-.01.05z"/><path id="4m5gJ" d="M1108.76 5472.16v.1l.01.1.02.12.02.11.02.1.04.11.04.11.06.1.07.1.08.09.09.09.1.07.13.08.14.06.16.05.17.04v-.06l-.17-.04-.14-.05-.13-.06-.12-.06-.1-.08-.09-.08-.07-.09-.07-.09-.05-.1-.04-.1-.04-.1-.03-.1-.01-.1-.02-.11V5472.16h-.07z"/><path id="4m5gK" d="M1110.46 5470.35l-.17.03-.16.04-.15.05-.15.07-.15.07-.14.1-.13.1-.12.11-.12.12-.1.13-.1.14-.06.16-.06.16-.05.17-.03.18-.01.18h.07v-.18l.03-.17.04-.16.06-.16.07-.15.09-.13.1-.13.1-.12.13-.1.12-.1.14-.09.14-.07.15-.07.15-.05.15-.05.16-.02v-.06z"/><path id="4m5gL" d="M1111.44 5470.25h-.06l-.06.01-.07.01-.08.01-.08.01-.08.01-.08.02-.08.01-.08.02-.07.01-.07.01-.06.02h-.04l-.04.01h-.03v.1h.04l.03-.02h.04l.06-.02h.07l.07-.02.08-.02.08-.01.08-.02h.08l.08-.02h.08l.07-.01h.12v-.11z"/><path id="4m5gM" d="M1112.08 5470.34l.03-.04h-.02l-.04-.01h-.08l-.09-.02H1111.67l-.12-.02h-.11v.11H1111.67l.1.02h.28l.04.01h.02l.03-.04-.03.04.02.01v-.05l-.05-.01z"/><path id="4m5gN" d="M1112.15 5470l-.02.09-.02.1-.02.08-.02.03.1.01.01-.03.03-.09.02-.1.02-.09h-.1z"/><path id="4m5gO" d="M1111.56 5469.53l.1.01.1.03.1.04.08.06.07.06.06.08.03.09.02.1h.06l-.02-.11-.04-.1-.06-.1-.08-.07-.09-.06-.1-.05-.11-.03-.12-.01v.06z"/><path id="4m5gP" d="M1109.53 5469.76l.05.03.04-.03.07-.03.08-.03.1-.03.11-.02.13-.02.13-.03.14-.02.15-.02.15-.01.15-.01.16-.01H1111.56v-.06h-.13l-.14-.01h-.3l-.16.02-.15.01-.15.02-.15.02-.14.01-.14.03-.12.02-.12.03-.1.02-.1.03-.06.04-.06.03.05.03-.06-.01z"/><path id="4m5gQ" d="M1109.88 5468.6l-.02.02-.33 1.14.06.01.33-1.14-.02.03-.02-.06h-.01v.02l.01-.02z"/><path id="4m5gR" d="M1111.99 5468.38h-.16l-.17-.01H1111.22l-.14.01h-.13l-.14.01-.13.01-.12.02-.12.02-.12.02-.11.03-.12.03-.1.04-.11.04.02.06.1-.04.11-.04.1-.04.12-.02.12-.02.12-.02.11-.02.13-.01h.14l.13-.01H1112v-.06z"/><path id="4m5gS" d="M1113.6 5469.98l.03-.2v-.17l-.04-.17-.05-.15-.07-.15-.1-.13-.11-.12-.12-.1-.14-.1-.14-.08-.15-.06-.15-.06-.15-.04-.15-.04-.15-.02-.13-.01v.06h.13l.14.03.15.03.14.05.15.05.14.07.14.07.13.1.12.1.1.1.1.13.07.14.05.14.03.16v.18l-.02.18.05.01z"/><path id="4m5gT" d="M1113.1 5472.47l.5-2.5h-.05l-.5 2.5h.06z"/><path id="4m5gU" d="M1111.94 5471.24v-.03l-.03-.02-.03-.02-.05-.01h-.05l-.06-.01h-.14l-.08.01-.07.01-.08.01-.07.01-.07.02h-.06l-.07.02-.04.01h-.04l-.03.02-.05.01-.05.02-.07.03-.05.03-.07.03-.06.04-.06.05-.06.05-.06.05-.05.06-.04.07-.03.07-.03.07-.02.08v.16l.02.13.04.1.06.07.07.04.08.03.08.02H1110.84l.14-.02.12-.02.1-.03.11-.04.1-.04.08-.05.07-.06.07-.05.06-.06.05-.06.04-.06.03-.06.03-.05.02-.06.01-.05.02-.13.02-.14.02-.13.01-.12z"/><path id="4m5gV" d="M1113.44 5473.52h1.34l.47-2.69.02-.1.03-.1.03-.11.04-.1.04-.1.06-.1.06-.1.08-.1.08-.07.1-.08.1-.07.13-.05.14-.05.15-.04.16-.03H1116.78l.21-1.22h-.13l-.13.02-.12.03-.11.03-.1.04-.1.05-.1.05-.09.05-.08.07-.09.07-.07.07-.08.08-.07.08-.07.09-.07.08-.07.1.15-.86h-1.33l-.89 5.06z"/><path id="4m5gW" d="M1113.44 5473.52h1.34l.47-2.69.02-.1.03-.1.03-.11.04-.1.04-.1.06-.1.06-.1.08-.1.08-.07.1-.08.1-.07.13-.05.14-.05.15-.04.16-.03H1116.78l.21-1.22h-.13l-.13.02-.12.03-.11.03-.1.04-.1.05-.1.05-.09.05-.08.07-.09.07-.07.07-.08.08-.07.08-.07.09-.07.08-.07.1.15-.86h-1.33l-.89 5.06"/><path id="4m5gX" d="M1100.9 5473.52h1.36l.45-2.69.02-.1.03-.1.02-.1.03-.1.04-.09.05-.09.05-.08.07-.08.08-.08.08-.07.1-.05.12-.05.13-.05.15-.03.16-.03.18-.01h.09l.02.01h.02l.01.01.01-.02.02-.05.01-.09.03-.1.03-.13.03-.13.05-.13.04-.13.04-.1.05-.08.04-.1.05-.07.04-.07.04-.06.02-.03v-.02h-.04l-.03-.01h-.07l-.04-.01h-.18l-.13.02-.12.03-.12.03-.1.03-.1.05-.1.05-.08.05-.08.07-.08.07-.07.07-.07.08-.07.08-.06.09-.08.1-.07.09.17-.86h-1.35l-.89 5.06z"/><path id="4m5gY" d="M1100.9 5473.52h1.36l.45-2.69.02-.1.03-.1.02-.1.03-.1.04-.09.05-.09.05-.08.07-.08.08-.08.08-.07.1-.05.12-.05.13-.05.15-.03.16-.03.18-.01h.09l.02.01h.02l.01.01.01-.02.02-.05.01-.09.03-.1.03-.13.03-.13.05-.13.04-.13.04-.1.05-.08.04-.1.05-.07.04-.07.04-.06.02-.03v-.02h-.04l-.03-.01h-.07l-.04-.01h-.18l-.13.02-.12.03-.12.03-.1.03-.1.05-.1.05-.08.05-.08.07-.08.07-.07.07-.07.08-.07.08-.06.09-.08.1-.07.09.17-.86h-1.35l-.89 5.06"/></defs><g><g transform="translate(-1077 -5456)"><use fill="#f7a826" xlink:href="#4m5ga"/></g><g transform="translate(-1077 -5456)"><use fill="#ed1c2e" xlink:href="#4m5gb"/></g><g transform="translate(-1077 -5456)"><use fill="#f7a826" xlink:href="#4m5gc"/></g><g transform="translate(-1077 -5456)"><use fill="#f7a826" xlink:href="#4m5gd"/></g><g transform="translate(-1077 -5456)"><use fill="#f7a826" xlink:href="#4m5ge"/></g><g transform="translate(-1077 -5456)"><use fill="#f7a826" xlink:href="#4m5gf"/></g><g transform="translate(-1077 -5456)"><use fill="#f7a826" xlink:href="#4m5gg"/></g><g transform="translate(-1077 -5456)"><use fill="#f7a826" xlink:href="#4m5gh"/></g><g transform="translate(-1077 -5456)"><use fill="#f7a826" xlink:href="#4m5gi"/></g><g transform="translate(-1077 -5456)"><use fill="#f7a826" xlink:href="#4m5gj"/></g><g transform="translate(-1077 -5456)"><use fill="#f7a826" xlink:href="#4m5gk"/></g><g transform="translate(-1077 -5456)"><use fill="#f7a826" xlink:href="#4m5gl"/></g><g transform="translate(-1077 -5456)"><use fill="#f7a826" xlink:href="#4m5gm"/></g><g transform="translate(-1077 -5456)"><use fill="#f7a826" xlink:href="#4m5gn"/></g><g transform="translate(-1077 -5456)"><use fill="#fff" xlink:href="#4m5go"/></g><g transform="translate(-1077 -5456)"><use fill="#fff" fill-opacity="0" stroke="#fff" stroke-miterlimit="50" stroke-width=".22" xlink:href="#4m5gp"/></g><g transform="translate(-1077 -5456)"><use fill="#fff" xlink:href="#4m5gq"/></g><g transform="translate(-1077 -5456)"><use fill="#fff" fill-opacity="0" stroke="#fff" stroke-miterlimit="50" stroke-width=".22" xlink:href="#4m5gr"/></g><g transform="translate(-1077 -5456)"><use fill="#fff" xlink:href="#4m5gs"/></g><g transform="translate(-1077 -5456)"><use fill="#fff" fill-opacity="0" stroke="#fff" stroke-miterlimit="50" stroke-width=".22" xlink:href="#4m5gt"/></g><g transform="translate(-1077 -5456)"><use fill="#fff" xlink:href="#4m5gu"/></g><g transform="translate(-1077 -5456)"><use fill="#fff" fill-opacity="0" stroke="#fff" stroke-miterlimit="50" stroke-width=".22" xlink:href="#4m5gv"/></g><g transform="translate(-1077 -5456)"><use fill="#fff" xlink:href="#4m5gw"/></g><g transform="translate(-1077 -5456)"><use fill="#fff" fill-opacity="0" stroke="#fff" stroke-miterlimit="50" stroke-width=".22" xlink:href="#4m5gx"/></g><g transform="translate(-1077 -5456)"><use fill="#fcb331" xlink:href="#4m5gy"/></g><g transform="translate(-1077 -5456)"><use fill="#fff" xlink:href="#4m5gz"/></g><g transform="translate(-1077 -5456)"><use fill="#fff" fill-opacity="0" stroke="#fff" stroke-miterlimit="50" stroke-width=".22" xlink:href="#4m5gA"/></g><g transform="translate(-1077 -5456)"><use fill="#ed1c2e" xlink:href="#4m5gB"/></g><g transform="translate(-1077 -5456)"><use fill="#fff" xlink:href="#4m5gC"/></g><g transform="translate(-1077 -5456)"><use fill="#fff" fill-opacity="0" stroke="#fff" stroke-miterlimit="50" stroke-width=".22" xlink:href="#4m5gD"/></g><g transform="translate(-1077 -5456)"><use fill="#fff" xlink:href="#4m5gE"/></g><g transform="translate(-1077 -5456)"><use fill="#fff" xlink:href="#4m5gF"/></g><g transform="translate(-1077 -5456)"><use fill="#fff" xlink:href="#4m5gG"/></g><g transform="translate(-1077 -5456)"><use fill="#fff" xlink:href="#4m5gH"/></g><g transform="translate(-1077 -5456)"><use fill="#fff" xlink:href="#4m5gI"/></g><g transform="translate(-1077 -5456)"><use fill="#fff" xlink:href="#4m5gJ"/></g><g transform="translate(-1077 -5456)"><use fill="#fff" xlink:href="#4m5gK"/></g><g transform="translate(-1077 -5456)"><use fill="#fff" xlink:href="#4m5gL"/></g><g transform="translate(-1077 -5456)"><use fill="#fff" xlink:href="#4m5gM"/></g><g transform="translate(-1077 -5456)"><use fill="#fff" xlink:href="#4m5gN"/></g><g transform="translate(-1077 -5456)"><use fill="#fff" xlink:href="#4m5gO"/></g><g transform="translate(-1077 -5456)"><use fill="#fff" xlink:href="#4m5gP"/></g><g transform="translate(-1077 -5456)"><use fill="#fff" xlink:href="#4m5gQ"/></g><g transform="translate(-1077 -5456)"><use fill="#fff" xlink:href="#4m5gR"/></g><g transform="translate(-1077 -5456)"><use fill="#fff" xlink:href="#4m5gS"/></g><g transform="translate(-1077 -5456)"><use fill="#fff" xlink:href="#4m5gT"/></g><g transform="translate(-1077 -5456)"><use fill="#fcb331" xlink:href="#4m5gU"/></g><g transform="translate(-1077 -5456)"><use fill="#fff" xlink:href="#4m5gV"/></g><g transform="translate(-1077 -5456)"><use fill="#fff" fill-opacity="0" stroke="#fff" stroke-miterlimit="50" stroke-width=".22" xlink:href="#4m5gW"/></g><g transform="translate(-1077 -5456)"><use fill="#fff" xlink:href="#4m5gX"/></g><g transform="translate(-1077 -5456)"><use fill="#fff" fill-opacity="0" stroke="#fff" stroke-miterlimit="50" stroke-width=".22" xlink:href="#4m5gY"/></g></g></svg>